<svg width="35" height="35" viewBox="0 0 35 35" fill="none" xmlns="http://www.w3.org/2000/svg">
<g clip-path="url(#clip0_3222_1208)">
<mask id="mask0_3222_1208" style="mask-type:alpha" maskUnits="userSpaceOnUse" x="3" y="5" width="21" height="24">
<path d="M5.68962 7.71971C3.95699 9.4322 3 11.7441 3 14.2272V28.9999H7.24094V14.2272C7.24094 12.4945 8.02164 11.3562 8.67641 10.7065C9.45711 9.94092 10.4745 9.43724 11.5524 9.27102L20.0041 17.6673L23.0009 14.6905L13.2548 5.00994L12.3835 5.0049C12.3633 5.0049 12.3432 5.0049 12.323 5.0049C9.86005 4.99987 7.44241 5.99211 5.68962 7.71971Z" fill="black"/>
</mask>
<g mask="url(#mask0_3222_1208)">
<path d="M13.0029 -4.99805L35.0034 17.0025L13.0029 38.9979L-8.99756 17.0025L13.0029 -4.99805Z" fill="#383A42"/>
</g>
<mask id="mask1_3222_1208" style="mask-type:alpha" maskUnits="userSpaceOnUse" x="13" y="5" width="20" height="24">
<path d="M28.0681 5V19.7124C28.0681 21.4501 27.2874 22.5833 26.6327 23.233C25.8519 24.0036 24.8345 24.5023 23.7566 24.6685L16.6952 17.6523L13.6982 20.634L22.0492 28.9346L22.9205 28.9396C22.9407 28.9396 22.9608 28.9396 22.981 28.9396C25.449 28.9396 27.8666 27.9525 29.6144 26.2198C31.347 24.5074 32.304 22.1955 32.304 19.7124V5H28.0681Z" fill="black"/>
</mask>
<g mask="url(#mask1_3222_1208)">
<path d="M23.0011 38.2424L1.73096 16.9722L23.0011 -4.3031L44.2764 16.9722L23.0011 38.2424Z" fill="#383A42"/>
</g>
<mask id="mask2_3222_1208" style="mask-type:alpha" maskUnits="userSpaceOnUse" x="20" y="5" width="6" height="5">
<path d="M22.9858 5C21.8224 5 20.8755 5.9469 20.8755 7.11039C20.8755 8.27892 21.8224 9.22079 22.9858 9.22079H23.011C24.1745 9.22079 25.1215 8.27388 25.1215 7.11039C25.1215 5.94187 24.1745 5 23.011 5H22.9858Z" fill="black"/>
</mask>
<g mask="url(#mask2_3222_1208)">
<path d="M25.1265 5H20.8755V9.22079H25.1265V5Z" fill="#383A42"/>
</g>
</g>
<defs>
<clipPath id="clip0_3222_1208">
<rect width="30" height="24" fill="white" transform="translate(3 5)"/>
</clipPath>
</defs>
</svg>
